Results
version=1
nRows=4
nColumns=143
inDegrees=yes
endheader
time	/jointset/groundthorax/r_z/value	/jointset/groundthorax/r_z/speed	/jointset/sternoclavicular/sternoclavicular_r2/value	/jointset/sternoclavicular/sternoclavicular_r2/speed	/jointset/sternoclavicular/sternoclavicular_r3/value	/jointset/sternoclavicular/sternoclavicular_r3/speed	/jointset/unrotscap/unrotscap_r3/value	/jointset/unrotscap/unrotscap_r3/speed	/jointset/unrotscap/unrotscap_r2/value	/jointset/unrotscap/unrotscap_r2/speed	/jointset/acromioclavicular/acromioclavicular_r2/value	/jointset/acromioclavicular/acromioclavicular_r2/speed	/jointset/acromioclavicular/acromioclavicular_r3/value	/jointset/acromioclavicular/acromioclavicular_r3/speed	/jointset/acromioclavicular/acromioclavicular_r1/value	/jointset/acromioclavicular/acromioclavicular_r1/speed	/jointset/unrothum/unrothum_r1/value	/jointset/unrothum/unrothum_r1/speed	/jointset/unrothum/unrothum_r3/value	/jointset/unrothum/unrothum_r3/speed	/jointset/unrothum/unrothum_r2/value	/jointset/unrothum/unrothum_r2/speed	/jointset/shoulder0/elv_angle/value	/jointset/shoulder0/elv_angle/speed	/jointset/shoulder1/shoulder_elv/value	/jointset/shoulder1/shoulder_elv/speed	/jointset/shoulder1/shoulder1_r2/value	/jointset/shoulder1/shoulder1_r2/speed	/jointset/shoulder2/shoulder_rot/value	/jointset/shoulder2/shoulder_rot/speed	/jointset/elbow/elbow_flexion/value	/jointset/elbow/elbow_flexion/speed	/jointset/radioulnar/pro_sup/value	/jointset/radioulnar/pro_sup/speed	/jointset/radiocarpal/deviation/value	/jointset/radiocarpal/deviation/speed	/jointset/radiocarpal/flexion/value	/jointset/radiocarpal/flexion/speed	/jointset/wrist_hand/wrist_hand_r1/value	/jointset/wrist_hand/wrist_hand_r1/speed	/jointset/wrist_hand/wrist_hand_r3/value	/jointset/wrist_hand/wrist_hand_r3/speed	/forceset/DELT1/activation	/forceset/DELT1/fiber_length	/forceset/DELT2/activation	/forceset/DELT2/fiber_length	/forceset/DELT3/activation	/forceset/DELT3/fiber_length	/forceset/SUPSP/activation	/forceset/SUPSP/fiber_length	/forceset/INFSP/activation	/forceset/INFSP/fiber_length	/forceset/SUBSC/activation	/forceset/SUBSC/fiber_length	/forceset/TMIN/activation	/forceset/TMIN/fiber_length	/forceset/TMAJ/activation	/forceset/TMAJ/fiber_length	/forceset/PECM1/activation	/forceset/PECM1/fiber_length	/forceset/PECM2/activation	/forceset/PECM2/fiber_length	/forceset/PECM3/activation	/forceset/PECM3/fiber_length	/forceset/LAT1/activation	/forceset/LAT1/fiber_length	/forceset/LAT2/activation	/forceset/LAT2/fiber_length	/forceset/LAT3/activation	/forceset/LAT3/fiber_length	/forceset/CORB/activation	/forceset/CORB/fiber_length	/forceset/TRIlong/activation	/forceset/TRIlong/fiber_length	/forceset/TRIlat/activation	/forceset/TRIlat/fiber_length	/forceset/TRImed/activation	/forceset/TRImed/fiber_length	/forceset/ANC/activation	/forceset/ANC/fiber_length	/forceset/SUP/activation	/forceset/SUP/fiber_length	/forceset/BIClong/activation	/forceset/BIClong/fiber_length	/forceset/BICshort/activation	/forceset/BICshort/fiber_length	/forceset/BRA/activation	/forceset/BRA/fiber_length	/forceset/BRD/activation	/forceset/BRD/fiber_length	/forceset/ECRL/activation	/forceset/ECRL/fiber_length	/forceset/ECRB/activation	/forceset/ECRB/fiber_length	/forceset/ECU/activation	/forceset/ECU/fiber_length	/forceset/FCR/activation	/forceset/FCR/fiber_length	/forceset/FCU/activation	/forceset/FCU/fiber_length	/forceset/PL/activation	/forceset/PL/fiber_length	/forceset/PT/activation	/forceset/PT/fiber_length	/forceset/PQ/activation	/forceset/PQ/fiber_length	/forceset/FDSL/activation	/forceset/FDSL/fiber_length	/forceset/FDSR/activation	/forceset/FDSR/fiber_length	/forceset/FDSM/activation	/forceset/FDSM/fiber_length	/forceset/FDSI/activation	/forceset/FDSI/fiber_length	/forceset/FDPL/activation	/forceset/FDPL/fiber_length	/forceset/FDPR/activation	/forceset/FDPR/fiber_length	/forceset/FDPM/activation	/forceset/FDPM/fiber_length	/forceset/FDPI/activation	/forceset/FDPI/fiber_length	/forceset/EDCL/activation	/forceset/EDCL/fiber_length	/forceset/EDCR/activation	/forceset/EDCR/fiber_length	/forceset/EDCM/activation	/forceset/EDCM/fiber_length	/forceset/EDCI/activation	/forceset/EDCI/fiber_length	/forceset/EDM/activation	/forceset/EDM/fiber_length	/forceset/EIP/activation	/forceset/EIP/fiber_length	/forceset/EPL/activation	/forceset/EPL/fiber_length	/forceset/EPB/activation	/forceset/EPB/fiber_length	/forceset/FPL/activation	/forceset/FPL/fiber_length	/forceset/APL/activation	/forceset/APL/fiber_length
      1.32415012	     10.00000028	     -0.00000000	     -5.97084185	     -8.69230213	      2.52896680	      3.68164893	     -2.52896680	     -3.68164893	      5.97084185	      8.69230213	     -1.20897402	     -1.76001437	      9.77050275	     14.22381701	      4.39177374	      6.39350785	     -4.39177374	     -6.39350785	     -9.77050275	    -14.22381701	      1.20897402	      1.76001437	    -20.05440357	    -14.05767171	     24.67284489	     35.91852333	     20.05440357	     14.05767171	      5.24258620	     51.76487899	      8.35127158	     13.84981364	    -19.18685497	    -13.55514361	      0.55637391	      1.75190796	      0.09873918	      5.17539949	     29.42147324	     64.52824485	      2.82866903	    148.26427417	      0.00000000	      0.12767497	      0.00000000	      0.12291305	      0.00000000	      0.12632667	      0.00000000	      0.07521791	      0.00000000	      0.08084184	      0.00000000	      0.08687185	      0.00000000	      0.07047753	      0.00000000	      0.13063142	      0.00000000	      0.13743952	      0.00000000	      0.11640678	      0.00000000	      0.09178774	      0.00000000	      0.17322489	      0.00000000	      0.13850453	      0.00000000	      0.20423821	      0.00000000	      0.08082063	      0.00000000	      0.14665766	      0.00000000	      0.07648830	      0.00000000	      0.07146829	      0.00000000	      0.00599306	      0.00000000	      0.03646796	      0.00000000	      0.15871390	      0.00000000	      0.17676254	      0.00000000	      0.09243236	      0.00000000	      0.19903604	      0.00000000	      0.09726637	      0.00000000	      0.06966722	      0.00000000	      0.07517822	      0.00000000	      0.07633870	      0.00000000	      0.05210028	      0.00000000	      0.07910930	      0.00000000	      0.06235359	      0.00000000	      0.02887816	      0.00000000	      0.05718730	      0.00000000	      0.07941592	      0.00000000	      0.08069991	      0.00000000	      0.09339595	      0.00000000	      0.07928538	      0.00000000	      0.08372547	      0.00000000	      0.08080929	      0.00000000	      0.08146124	      0.00000000	      0.08211125	      0.00000000	      0.07239797	      0.00000000	      0.48755646	      0.00000000	      0.07769570	      0.00000000	      0.08077107	      0.00000000	      0.07326440	      0.00000000	      0.06800997	      0.00000000	      0.08087917	      0.00000000	      0.06902509	      0.00000000	      0.08489852
      1.32450540	     10.00000028	     -0.00000000	     -5.97392575	     -8.66825639	      2.53027299	      3.67146429	     -2.53027299	     -3.67146429	      5.97392575	      8.66825639	     -1.20959845	     -1.75514559	      9.77554915	     14.18446929	      4.39404207	      6.37582133	     -4.39404207	     -6.37582133	     -9.77554915	    -14.18446929	      1.20959845	      1.75514559	    -20.05939606	    -14.04714667	     24.68558827	     35.81916099	     20.05939606	     14.04714667	      5.26097076	     51.72606077	      8.35618185	     13.79263657	    -19.19168713	    -13.64035155	      0.55698521	      1.68918238	      0.10057228	      5.14384870	     29.44398967	     62.21786578	      2.88118372	    147.36041045	      0.00000000	      0.12767978	      0.00000000	      0.12291305	      0.00000000	      0.12632667	      0.00000000	      0.07521791	      0.00000000	      0.08084184	      0.00000000	      0.08687185	      0.00000000	      0.07047753	      0.00000000	      0.13063142	      0.00000000	      0.13743952	      0.00000000	      0.11640678	      0.00000000	      0.09178774	      0.00000000	      0.17322489	      0.00000000	      0.13850453	      0.00000000	      0.20423821	      0.00000000	      0.08082063	      0.00000000	      0.14665766	      0.00000000	      0.07648830	      0.00000000	      0.07146829	      0.00000000	      0.00599306	      0.00000000	      0.03646796	      0.00000000	      0.15871390	      0.00000000	      0.17676254	      0.00000000	      0.09243236	      0.00000000	      0.19903604	      0.00000000	      0.09726637	      0.00000000	      0.06966722	      0.00000000	      0.07517822	      0.00000000	      0.07633870	      0.00000000	      0.05210028	      0.00000000	      0.07910930	      0.00000000	      0.06235359	      0.00000000	      0.02887870	      0.00000000	      0.05718730	      0.00000000	      0.07941592	      0.00000000	      0.08069991	      0.00000000	      0.09339595	      0.00000000	      0.07928538	      0.00000000	      0.08372547	      0.00000000	      0.08080929	      0.00000000	      0.08146124	      0.00000000	      0.08211125	      0.00000000	      0.07239797	      0.00000000	      0.48755646	      0.00000000	      0.07769570	      0.00000000	      0.08077107	      0.00000000	      0.07326440	      0.00000000	      0.06800997	      0.00000000	      0.08089188	      0.00000000	      0.06902509	      0.00000000	      0.08489852
      1.32486068	     10.00000028	     -0.00000000	     -5.97700110	     -8.64414022	      2.53157557	      3.66124982	     -2.53157557	     -3.66124982	      5.97700110	      8.64414022	     -1.21022114	     -1.75026256	      9.78058156	     14.14500634	      4.39630410	      6.35808300	     -4.39630410	     -6.35808300	     -9.78058156	    -14.14500634	      1.21022114	      1.75026256	    -20.06438481	    -14.03665683	     24.69829630	     35.71950763	     20.06438481	     14.03665683	      5.27934126	     51.68570167	      8.36107160	     13.73437310	    -19.19654947	    -13.72489639	      0.55757396	      1.62488354	      0.10239403	      5.11142571	     29.46567495	     59.84953846	      2.93337283	    146.43156016	      0.00000000	      0.12768458	      0.00000000	      0.12291305	      0.00000000	      0.12632667	      0.00000000	      0.07521791	      0.00000000	      0.08084184	      0.00000000	      0.08687185	      0.00000000	      0.07047753	      0.00000000	      0.13063142	      0.00000000	      0.13743952	      0.00000000	      0.11640678	      0.00000000	      0.09178774	      0.00000000	      0.17322489	      0.00000000	      0.13850453	      0.00000000	      0.20423821	      0.00000000	      0.08082063	      0.00000000	      0.14665766	      0.00000000	      0.07648830	      0.00000000	      0.07146829	      0.00000000	      0.00599306	      0.00000000	      0.03646796	      0.00000000	      0.15871390	      0.00000000	      0.17676254	      0.00000000	      0.09243236	      0.00000000	      0.19903604	      0.00000000	      0.09726637	      0.00000000	      0.06966722	      0.00000000	      0.07517822	      0.00000000	      0.07633870	      0.00000000	      0.05210028	      0.00000000	      0.07910930	      0.00000000	      0.06235359	      0.00000000	      0.02887920	      0.00000000	      0.05718730	      0.00000000	      0.07941592	      0.00000000	      0.08069991	      0.00000000	      0.09339595	      0.00000000	      0.07928538	      0.00000000	      0.08372547	      0.00000000	      0.08080929	      0.00000000	      0.08146124	      0.00000000	      0.08211125	      0.00000000	      0.07239797	      0.00000000	      0.48755646	      0.00000000	      0.07769570	      0.00000000	      0.08077107	      0.00000000	      0.07326440	      0.00000000	      0.06800997	      0.00000000	      0.08090414	      0.00000000	      0.06902509	      0.00000000	      0.08489852
      1.32521596	     10.00000028	     -0.00000000	     -5.98006787	     -8.61995521	      2.53287451	      3.65100619	     -2.53287451	     -3.65100619	      5.98006787	      8.61995521	     -1.21084210	     -1.74536559	      9.78559993	     14.10543072	      4.39855982	      6.34029403	     -4.39855982	     -6.34029403	     -9.78559993	    -14.10543072	      1.21084210	      1.74536559	    -20.06936984	    -14.02620164	     24.71096887	     35.61956977	     20.06936984	     14.02620164	      5.29769709	     51.64346984	      8.36594049	     13.67519621	    -19.20144133	    -13.80647502	      0.55813958	      1.55904089	      0.10420410	      5.07815205	     29.48650868	     57.42434816	      2.98522760	    145.47834001	      0.00000000	      0.12768937	      0.00000000	      0.12291305	      0.00000000	      0.12632667	      0.00000000	      0.07521791	      0.00000000	      0.08084184	      0.00000000	      0.08687185	      0.00000000	      0.07047753	      0.00000000	      0.13063142	      0.00000000	      0.13743952	      0.00000000	      0.11640678	      0.00000000	      0.09178774	      0.00000000	      0.17322489	      0.00000000	      0.13850453	      0.00000000	      0.20423821	      0.00000000	      0.08082063	      0.00000000	      0.14665766	      0.00000000	      0.07648830	      0.00000000	      0.07146829	      0.00000000	      0.00599306	      0.00000000	      0.03646796	      0.00000000	      0.15871390	      0.00000000	      0.17676254	      0.00000000	      0.09243236	      0.00000000	      0.19903604	      0.00000000	      0.09726637	      0.00000000	      0.06966722	      0.00000000	      0.07517822	      0.00000000	      0.07633870	      0.00000000	      0.05210028	      0.00000000	      0.07910930	      0.00000000	      0.06235359	      0.00000000	      0.02887975	      0.00000000	      0.05718730	      0.00000000	      0.07941592	      0.00000000	      0.08069991	      0.00000000	      0.09339595	      0.00000000	      0.07928538	      0.00000000	      0.08372547	      0.00000000	      0.08080929	      0.00000000	      0.08146124	      0.00000000	      0.08211125	      0.00000000	      0.07239797	      0.00000000	      0.48755646	      0.00000000	      0.07769570	      0.00000000	      0.08077107	      0.00000000	      0.07326440	      0.00000000	      0.06800997	      0.00000000	      0.08091594	      0.00000000	      0.06902509	      0.00000000	      0.08489852
